<svg xmlns="http://www.w3.org/2000/svg" width="512" height="512"><path d="M 286 214.5 C 286 226.964 294.5 225.5 294.5 225.5 L 377.5 221.5 C 377.5 221.5 384.454 224.661 382 198 C 369.586 63.128 135.413 59.542 128 209.5 C 128 359.926 127.348 335.501 128 352.5 C 137.039 511.163 384.017 498.679 382.5 352.5 C 382.345 349.163 384.893 341 375 341 C 365.107 341 317.972 338.588 296 337.5 C 286.839 337.046 286 340.517 286 347 C 288.701 396.585 226.294 391.407 225 354.5 C 223.706 317.593 225 234.793 225 209.5 C 231.918 163.906 288.018 174.4 286 214.5 Z" fill="rgb(255, 255, 255)"></path></svg>