<svg xmlns="http://www.w3.org/2000/svg" width="100" height="125"><path d="M 64.613 38.312 C 64.478 38.312 63.26 38.331 62.009 38.961 C 61.87 39.03 61.746 39.113 61.618 39.192 L 61.618 35.274 C 61.618 31.353 58.421 29.929 56.272 29.929 C 56.137 29.929 54.918 29.947 53.668 30.577 C 53.525 30.649 53.397 30.734 53.265 30.816 C 53.115 27.109 50.03 25.748 47.933 25.748 C 47.798 25.748 46.58 25.766 45.329 26.396 C 43.65 27.242 42.704 28.814 42.624 30.834 C 41.707 30.252 40.646 29.938 39.56 29.928 C 39.425 29.928 38.207 29.946 36.956 30.576 C 35.202 31.46 34.236 33.132 34.236 35.284 L 34.235 48.205 C 32.07 49.489 30.069 51.847 30.069 56.186 L 30.068 60.371 C 30.077 63.485 31.873 69.222 38.431 69.827 L 38.431 95 L 40.739 95 L 40.739 67.576 L 39.579 67.576 C 39.471 67.576 39.369 67.569 39.264 67.566 C 39.156 67.562 39.044 67.562 38.94 67.555 C 38.845 67.549 38.756 67.537 38.664 67.529 C 38.555 67.519 38.443 67.511 38.337 67.498 C 38.257 67.487 38.183 67.472 38.105 67.459 C 37.994 67.441 37.88 67.426 37.772 67.404 C 37.71 67.39 37.652 67.375 37.591 67.36 C 37.474 67.334 37.356 67.308 37.244 67.277 L 37.091 67.228 C 36.976 67.193 36.861 67.159 36.752 67.119 C 36.706 67.103 36.664 67.084 36.618 67.066 C 36.509 67.023 36.398 66.98 36.294 66.933 C 36.264 66.92 36.237 66.905 36.208 66.891 C 36.093 66.838 35.981 66.782 35.87 66.722 L 35.802 66.682 C 35.692 66.621 35.584 66.556 35.478 66.488 L 35.414 66.444 C 35.312 66.377 35.213 66.307 35.115 66.234 L 35.111 66.23 C 32.569 64.291 32.39 60.888 32.378 60.416 L 32.377 60.369 L 32.378 56.187 C 32.379 55.667 32.419 55.148 32.498 54.634 L 32.5 54.62 C 32.537 54.399 32.583 54.185 32.636 53.975 L 32.672 53.839 C 32.728 53.635 32.789 53.435 32.86 53.242 L 32.861 53.239 C 32.948 53.009 33.048 52.784 33.161 52.566 C 33.349 52.198 33.572 51.856 33.829 51.541 L 33.885 51.475 C 34.43 50.835 35.097 50.311 35.847 49.934 C 37.665 49 39.55 48.978 39.565 48.978 L 47.899 48.978 C 48.407 48.984 50.944 49.161 50.944 52.005 C 50.944 52.922 50.705 53.606 50.215 54.095 C 49.349 54.96 47.94 54.972 47.906 54.972 L 38.367 54.972 L 38.367 57.279 L 47.889 57.279 C 48.133 57.284 50.283 57.269 51.824 55.75 C 52.25 55.33 52.576 54.842 52.811 54.293 C 53.879 55.142 55.218 55.498 56.293 55.498 C 56.428 55.498 57.647 55.48 58.898 54.85 C 59.175 54.709 59.426 54.543 59.664 54.366 C 60.567 56.698 62.928 57.6 64.634 57.6 C 64.769 57.6 65.987 57.582 67.238 56.952 C 67.381 56.88 67.509 56.795 67.64 56.714 L 67.64 64.54 C 67.634 65.048 67.456 67.575 64.622 67.575 L 63.468 67.575 L 63.468 95 L 65.777 95 L 65.777 69.782 C 67.361 69.491 68.591 68.584 69.304 67.154 C 69.703 66.342 69.922 65.453 69.948 64.549 L 69.948 52.418 C 69.949 52.359 69.959 52.305 69.959 52.246 L 69.959 43.657 C 69.959 39.736 66.763 38.312 64.613 38.312 Z M 42.599 46.673 L 39.565 46.673 C 39.529 46.673 38.198 46.689 36.544 47.196 L 36.545 35.285 C 36.545 32.421 39.064 32.243 39.555 32.236 C 40.063 32.242 42.6 32.42 42.6 35.274 Z M 50.972 34.887 C 50.964 35.019 50.949 35.148 50.949 35.285 L 50.948 47.565 C 50.036 46.992 48.983 46.683 47.906 46.673 L 44.917 46.673 L 44.917 31.105 C 44.917 28.241 47.436 28.063 47.934 28.057 C 48.245 28.057 50.972 28.142 50.972 31.095 Z M 59.311 43.291 C 59.305 43.417 59.29 43.539 59.29 43.668 L 59.29 50.537 C 59.069 53.008 56.79 53.186 56.294 53.194 C 55.782 53.185 53.385 52.999 53.269 50.352 C 53.27 50.282 53.281 50.216 53.281 50.145 L 53.281 34.879 C 53.51 32.408 55.802 32.243 56.267 32.236 C 56.777 32.242 59.313 32.42 59.313 35.274 Z M 67.651 46.673 L 67.64 46.673 L 67.64 52.424 C 67.535 55.098 65.143 55.285 64.633 55.294 C 64.109 55.285 61.595 55.098 61.595 52.256 L 61.595 50.527 C 61.603 50.399 61.617 50.276 61.617 50.145 L 61.618 43.284 C 61.835 40.793 64.139 40.626 64.612 40.62 C 67.565 40.62 67.651 43.347 67.651 43.658 Z M 84.665 13.6 L 86.295 15.23 L 77.945 23.58 L 76.313 21.948 Z M 84.304 46.663 L 94.952 46.663 L 94.952 48.97 L 84.304 48.97 Z M 46.751 5 L 49.059 5 L 49.059 15.668 L 46.751 15.668 Z M 22.039 23.564 L 13.689 15.214 L 15.319 13.582 L 23.669 21.932 Z M 84.67 82.106 L 76.32 73.756 L 77.95 72.126 L 86.3 80.476 Z M 15.318 82.123 L 13.688 80.492 L 22.038 72.142 L 23.67 73.774 Z M 5.048 46.663 L 15.697 46.663 L 15.697 48.97 L 5.048 48.97 Z" fill="hsl(0, 0%, 100%)"></path></svg>